<svg width="10" height="3" viewBox="0 0 10 3" fill="none" xmlns="http://www.w3.org/2000/svg">
<path d="M1.8 2.156C1.56 2.156 1.356 2.072 1.188 1.904C1.028 1.736 0.948 1.536 0.948 1.304C0.948 1.064 1.028 0.86 1.188 0.692C1.356 0.524 1.56 0.44 1.8 0.44C2.04 0.44 2.24 0.524 2.4 0.692C2.568 0.86 2.652 1.064 2.652 1.304C2.652 1.536 2.568 1.736 2.4 1.904C2.24 2.072 2.04 2.156 1.8 2.156ZM5.39766 2.156C5.15766 2.156 4.95366 2.072 4.78566 1.904C4.62566 1.736 4.54566 1.536 4.54566 1.304C4.54566 1.064 4.62566 0.86 4.78566 0.692C4.95366 0.524 5.15766 0.44 5.39766 0.44C5.63766 0.44 5.83766 0.524 5.99766 0.692C6.16566 0.86 6.24966 1.064 6.24966 1.304C6.24966 1.536 6.16566 1.736 5.99766 1.904C5.83766 2.072 5.63766 2.156 5.39766 2.156ZM8.99531 2.156C8.75531 2.156 8.55131 2.072 8.38331 1.904C8.22331 1.736 8.14331 1.536 8.14331 1.304C8.14331 1.064 8.22331 0.86 8.38331 0.692C8.55131 0.524 8.75531 0.44 8.99531 0.44C9.23531 0.44 9.43531 0.524 9.59531 0.692C9.76331 0.86 9.84731 1.064 9.84731 1.304C9.84731 1.536 9.76331 1.736 9.59531 1.904C9.43531 2.072 9.23531 2.156 8.99531 2.156Z" fill="#555555"/>
</svg>
